<?xml version="1.0" standalone="no"?>
<!DOCTYPE svg PUBLIC "-//W3C//DTD SVG 20010904//EN"
 "http://www.w3.org/TR/2001/REC-SVG-20010904/DTD/svg10.dtd">
<svg version="1.0" xmlns="http://www.w3.org/2000/svg"
 width="259.000000pt" height="194.000000pt" viewBox="0 0 259.000000 194.000000"
 preserveAspectRatio="xMidYMid meet">
<metadata>
Created by potrace 1.15, written by Peter Selinger 2001-2017
</metadata>
<g transform="translate(0.000000,194.000000) scale(0.100000,-0.100000)"
fill="#000000" stroke="none">
<path d="M740 1810 l0 -130 40 0 40 0 0 45 0 45 40 0 40 0 0 -45 0 -45 45 0
45 0 0 130 0 130 -45 0 -45 0 0 -45 0 -45 -40 0 -40 0 0 45 0 45 -40 0 -40 0
0 -130z"/>
<path d="M1030 1895 l0 -45 40 0 40 0 0 -85 0 -85 40 0 40 0 0 85 0 85 40 0
40 0 0 45 0 45 -120 0 -120 0 0 -45z"/>
<path d="M1310 1810 l0 -130 40 0 39 0 3 63 3 62 30 -44 29 -43 16 23 c8 12
23 32 32 43 17 20 17 19 18 -41 l0 -63 40 0 40 0 0 130 0 130 -44 0 c-42 0
-46 -2 -70 -45 -15 -25 -28 -45 -30 -45 -2 0 -16 20 -30 45 -25 43 -29 45 -71
45 l-45 0 0 -130z"/>
<path d="M1650 1810 l0 -130 105 0 105 0 0 40 0 39 -62 3 -63 3 -3 88 -3 87
-39 0 -40 0 0 -130z"/>
<path d="M613 1518 c4 -24 32 -338 64 -698 31 -360 61 -658 66 -661 11 -8 535
-152 552 -152 16 0 542 145 552 152 5 3 35 301 66 661 32 360 60 674 64 698
l5 42 -687 0 -687 0 5 -42z m1112 -320 c-4 -46 -9 -89 -11 -97 -4 -12 -54 -13
-329 -7 l-325 6 0 -47 c0 -27 3 -65 6 -85 l7 -38 314 0 314 0 -6 -57 c-3 -32
-14 -152 -25 -266 -10 -115 -20 -210 -23 -213 -5 -5 -327 -95 -347 -97 -8 0
-92 21 -187 47 l-171 48 -6 31 c-2 18 -8 73 -11 122 -4 50 -9 98 -11 108 -5
15 4 17 84 17 102 0 102 0 102 -85 l0 -53 98 -26 97 -27 88 25 c49 14 91 27
94 30 6 5 21 139 22 188 l1 28 -297 2 -297 3 -23 250 c-12 138 -21 256 -18
263 3 9 100 12 435 12 l431 0 -6 -82z"/>
</g>
</svg>
